<svg width="32" height="32" viewBox="0 0 32 32" fill="none" xmlns="http://www.w3.org/2000/svg">
<rect width="32" height="32" fill="white"/>
<path d="M26.3564 8H23.668C23.8951 8.18984 24.0865 8.43844 24.2197 8.74609L26.7412 14.5684C26.8694 14.8648 26.9172 15.1707 26.9014 15.4658C27.0705 15.6509 27.164 15.8912 27.1641 16.1396L27.1582 16.375C27.1313 16.9219 27.0109 17.4614 26.8008 17.9688C26.5607 18.5484 26.2083 19.0758 25.7646 19.5195C25.3208 19.9633 24.7935 20.3155 24.2139 20.5557C23.7068 20.7657 23.1674 20.8869 22.6201 20.9141L22.3848 20.9199C21.7569 20.9199 21.1351 20.7956 20.5557 20.5557C19.9759 20.3155 19.4487 19.9633 19.0049 19.5195C18.561 19.0756 18.2089 18.5486 17.9688 17.9688C17.7287 17.3891 17.6045 16.7675 17.6045 16.1396V15.1396H17.875C17.8963 14.9491 17.9459 14.7568 18.0273 14.5684L20.5488 8.74609C20.6821 8.43845 20.8735 8.18984 21.1006 8H17.0352V24.2598C19.7659 23.9684 21.3945 22.7943 21.8291 22.3115H21.8301C22.199 21.9029 22.8307 21.8689 23.2412 22.2373H23.2422C23.6529 22.607 23.6846 23.2404 23.3164 23.6504V23.6514C22.4366 24.6286 19.946 26.2234 16.1426 26.3223L15.7705 26.3271C11.7569 26.327 9.13164 24.6602 8.22363 23.6514V23.6504C7.85529 23.2401 7.88765 22.6067 8.29785 22.2373H8.29883C8.70872 21.8692 9.3413 21.9019 9.71094 22.3115H9.71191C10.1749 22.8259 11.987 24.1182 15.0352 24.3027V8H10.0625C10.2525 8.15884 10.418 8.3583 10.5449 8.59961L10.6152 8.74512V8.74609L13.1367 14.5684C13.2649 14.8648 13.3127 15.1706 13.2969 15.4658C13.4661 15.6508 13.5596 15.8916 13.5596 16.1406L13.5537 16.376C13.5268 16.9229 13.4064 17.4623 13.1963 17.9697C12.9561 18.5494 12.6039 19.0767 12.1602 19.5205C11.7163 19.9643 11.1891 20.3165 10.6094 20.5566C10.1023 20.7667 9.56298 20.8879 9.01562 20.915L8.78027 20.9209C8.15248 20.9209 7.53062 20.7966 6.95117 20.5566C6.44384 20.3465 5.9765 20.0506 5.57031 19.6826L5.40039 19.5205C4.95656 19.0767 4.60442 18.5494 4.36426 17.9697C4.12419 17.3901 4.00007 16.7684 4 16.1406V15.1406H4.27051C4.29144 14.9499 4.3411 14.7574 4.42285 14.5684L6.94434 8.74512C7.07766 8.43745 7.2699 8.18978 7.49707 8H5.18359V6H26.3564V8ZM6.28711 17.3623C6.42177 17.6371 6.59789 17.8899 6.81445 18.1064L7.0166 18.29C7.22748 18.4631 7.46323 18.6043 7.71582 18.709C8.05319 18.8487 8.41551 18.9209 8.78027 18.9209L9.05273 18.9072C9.32406 18.8804 9.59071 18.8138 9.84375 18.709C10.1811 18.5692 10.4881 18.3644 10.7461 18.1064C10.9626 17.8899 11.1388 17.637 11.2734 17.3623H6.28711ZM19.8916 17.3623C20.0262 17.6368 20.2025 17.889 20.4189 18.1055C20.6771 18.3636 20.9834 18.5684 21.3203 18.708C21.6577 18.8477 22.02 18.9199 22.3848 18.9199L22.6572 18.9062C22.9285 18.8794 23.1953 18.8128 23.4482 18.708C23.7856 18.5682 24.0927 18.3634 24.3506 18.1055C24.5669 17.889 24.7434 17.6366 24.8779 17.3623H19.8916ZM6.35449 15.1406H11.2051L8.7793 9.54102L6.35449 15.1406ZM19.96 15.1396H24.8086L22.3838 9.54102L19.96 15.1396Z" fill="black"/>
</svg>
