<svg width="359" height="359" viewBox="0 0 359 359" fill="none" xmlns="http://www.w3.org/2000/svg">
<path d="M215.71 227.412C215.71 228.35 215.657 229.239 215.546 230.074C215.491 230.855 215.35 231.558 215.129 232.183C213.577 232.287 212.385 232.602 211.554 233.124C210.779 233.593 210.254 234.375 209.977 235.469C209.7 236.564 209.56 238.103 209.56 240.084V270.356C209.559 273.953 209.312 277.211 208.813 280.131C208.37 283.05 207.483 285.686 206.153 288.032C204.823 290.378 202.884 292.519 200.336 294.449C197.787 296.43 194.432 298.279 190.277 300C189.557 299.531 189.028 298.932 188.696 298.203C188.363 297.525 188.14 296.791 188.029 296.009C190.079 294.549 191.771 292.987 193.101 291.318C194.431 289.702 195.429 287.72 196.094 285.374C196.815 283.08 197.173 280.186 197.173 276.693V240.084C197.173 237.946 197.009 236.356 196.676 235.313C196.399 234.218 195.846 233.461 195.015 233.043C194.239 232.574 193.101 232.287 191.604 232.183C191.383 231.609 191.218 230.879 191.107 229.993C191.052 229.107 191.023 228.246 191.023 227.412C192.02 227.464 193.213 227.516 194.598 227.568C195.983 227.62 197.452 227.648 199.003 227.648H209.977C212.359 227.596 214.27 227.516 215.71 227.412Z" fill="black"/>
<path d="M165.789 226.943C167.838 226.943 169.861 227.099 171.855 227.412C173.85 227.724 175.678 228.143 177.34 228.665C179.002 229.134 180.359 229.708 181.412 230.386C181.412 232.263 181.441 234.272 181.497 236.41C181.552 238.495 181.693 240.19 181.914 241.493C181.028 241.962 179.863 242.301 178.423 242.51C177.038 242.666 175.788 242.742 174.68 242.742C174.181 239.823 173.488 237.582 172.601 236.018C171.77 234.453 170.718 233.385 169.444 232.811C168.225 232.186 166.785 231.871 165.123 231.871C162.851 231.871 160.994 232.393 159.553 233.436C158.113 234.427 157.391 235.913 157.391 237.895C157.391 239.823 158.056 241.439 159.385 242.742C160.77 244.045 162.519 245.193 164.625 246.184C166.785 247.174 169.056 248.192 171.438 249.234C173.876 250.277 176.149 251.505 178.255 252.913C180.416 254.269 182.19 255.962 183.575 257.996C184.96 260.03 185.653 262.561 185.653 265.585C185.653 268.556 184.877 271.24 183.326 273.638C181.775 275.985 179.473 277.838 176.425 279.194C173.378 280.549 169.527 281.227 164.874 281.228C161.272 281.228 157.947 280.809 154.899 279.975C151.907 279.14 148.97 277.992 146.088 276.532C146.531 274.448 146.808 272.337 146.919 270.2C147.03 268.062 147.083 266.105 147.083 264.332C148.191 264.019 149.413 263.812 150.742 263.708C152.072 263.604 153.347 263.552 154.566 263.552C154.788 266.523 155.229 268.948 155.894 270.825C156.614 272.65 157.724 273.981 159.22 274.815C160.716 275.649 162.714 276.064 165.207 276.064C168.475 276.064 170.832 275.414 172.273 274.111C173.713 272.756 174.431 271.216 174.431 269.496C174.431 267.671 173.767 266.156 172.437 264.957C171.107 263.705 169.415 262.613 167.365 261.675C165.315 260.736 163.129 259.767 160.801 258.776C158.53 257.786 156.339 256.59 154.233 255.182C152.183 253.774 150.491 252.024 149.161 249.939C147.888 247.853 147.252 245.245 147.252 242.117C147.252 238.676 148.056 235.834 149.663 233.592C151.326 231.35 153.541 229.679 156.312 228.584C159.137 227.489 162.298 226.943 165.789 226.943Z" fill="black"/>
<path fill-rule="evenodd" clip-rule="evenodd" d="M249.982 227.336C254.526 227.336 258.238 227.962 261.12 229.213C264.001 230.464 266.105 232.159 267.435 234.296C268.82 236.382 269.514 238.73 269.514 241.337C269.513 244.308 268.878 246.888 267.604 249.078C266.329 251.268 264.555 253.042 262.283 254.398C260.589 255.37 258.708 256.106 256.643 256.614C257.841 257.382 258.865 258.178 259.708 259.013C260.76 260.003 261.813 261.307 262.865 262.923C263.918 264.488 265.222 266.652 266.773 269.416C267.715 270.98 268.544 272.208 269.265 273.094C269.985 273.981 270.819 274.63 271.761 275.047C272.758 275.412 274.004 275.648 275.5 275.752C275.5 276.638 275.446 277.472 275.336 278.253C275.28 278.983 275.111 279.741 274.834 280.523C271.621 280.523 268.629 280.575 265.859 280.679C263.088 280.783 260.761 280.967 258.877 281.228C258.102 279.768 257.379 278.412 256.714 277.161C256.105 275.909 255.523 274.682 254.969 273.482C254.415 272.283 253.804 271.031 253.139 269.728C252.253 267.851 251.394 266.236 250.564 264.881C249.788 263.525 248.872 262.273 247.819 261.126C247.051 260.242 246.134 259.343 245.07 258.429C244.485 258.439 243.932 258.464 243.414 258.464C242.57 258.464 241.684 258.447 240.753 258.42V267.694C240.753 269.989 240.894 271.739 241.171 272.938C241.503 274.084 242.003 274.867 242.667 275.284C243.387 275.648 244.329 275.884 245.492 275.988C245.658 276.457 245.77 277.16 245.825 278.097C245.936 278.984 245.994 279.873 245.994 280.759C244.885 280.707 243.553 280.655 242.001 280.603C240.506 280.603 238.982 280.575 237.431 280.523H227.706C225.655 280.575 223.799 280.655 222.137 280.759C222.137 279.769 222.166 278.879 222.221 278.097C222.332 277.316 222.497 276.613 222.718 275.988C224.214 275.884 225.349 275.62 226.125 275.203C226.955 274.786 227.513 274.032 227.79 272.938C228.122 271.791 228.287 270.2 228.287 268.167V239.848C228.287 237.815 228.122 236.275 227.79 235.233C227.513 234.138 226.955 233.385 226.125 232.968C225.349 232.498 224.185 232.211 222.634 232.107C222.468 231.482 222.332 230.699 222.221 229.762C222.166 228.771 222.137 227.985 222.137 227.412C223.411 227.464 225.156 227.516 227.373 227.568C229.644 227.62 232 227.648 234.438 227.648C236.322 227.648 238.649 227.596 241.42 227.492C244.19 227.388 247.045 227.336 249.982 227.336ZM245.492 232.107C244.496 232.107 243.582 232.183 242.752 232.339C242.138 232.421 241.472 232.564 240.753 232.745V253.376C241.298 253.441 241.77 253.499 242.17 253.537C242.723 253.589 243.249 253.617 243.747 253.617C246.074 253.617 248.182 253.227 250.066 252.445C252.005 251.662 253.557 250.462 254.72 248.846C255.939 247.23 256.55 245.169 256.55 242.666C256.55 239.433 255.634 236.878 253.806 235.001C252.032 233.071 249.26 232.107 245.492 232.107Z" fill="black"/>
<path fill-rule="evenodd" clip-rule="evenodd" d="M133.209 267.463C134.373 269.756 135.289 271.503 135.954 272.702C136.674 273.901 137.338 274.711 137.948 275.128C138.612 275.544 139.36 275.832 140.191 275.988C140.412 276.666 140.553 277.396 140.608 278.178C140.719 278.96 140.772 279.821 140.772 280.759C139.886 280.655 138.722 280.575 137.282 280.523H123.235C122.016 280.575 120.852 280.603 119.744 280.603C118.691 280.655 117.858 280.707 117.248 280.759C117.248 279.716 117.306 278.827 117.417 278.097C117.528 277.316 117.693 276.613 117.914 275.988C119.965 275.623 121.186 275.049 121.574 274.267C121.962 273.433 121.656 271.997 120.659 269.964L118.625 265.509C115.274 265.519 111.768 265.568 108.109 265.661C104.723 265.748 101.432 265.901 98.2406 266.098L97.1347 268.791C96.3037 270.877 96.1097 272.547 96.553 273.799C96.9968 275.049 98.2152 275.779 100.208 275.988C100.429 276.614 100.57 277.344 100.625 278.178C100.736 278.96 100.79 279.821 100.79 280.759C100.18 280.707 99.3499 280.655 98.2983 280.603C97.3008 280.603 96.22 280.575 95.0563 280.523H87.8263C86.441 280.575 85.3312 280.655 84.5 280.759C84.5 279.873 84.5535 279.036 84.6643 278.253C84.7751 277.472 84.9696 276.717 85.2461 275.988C86.188 275.832 86.9927 275.517 87.6576 275.047C88.3225 274.526 88.9621 273.693 89.5717 272.546C90.2366 271.399 91.0122 269.832 91.8988 267.85L109.272 227.568C110.158 227.359 110.935 227.256 111.599 227.256C112.319 227.203 113.178 227.18 114.175 227.18L133.209 267.463ZM108.086 241.083C107.711 242.277 107.332 243.456 106.941 244.619C106.22 246.705 105.391 248.845 104.449 251.035L100.261 261.202H116.658L112.012 251.035C110.849 248.637 109.908 246.42 109.188 244.387C108.805 243.308 108.437 242.206 108.086 241.083Z" fill="black"/>
<path fill-rule="evenodd" clip-rule="evenodd" d="M254.911 67.1321H234.74C235.095 67.5778 235.419 68.0647 235.699 68.5991L236.019 69.2635L258.167 120.622C258.804 122.103 259.002 123.633 258.864 125.09C259.203 125.736 259.392 126.463 259.392 127.213L259.352 128.778C259.174 132.424 258.376 136.022 256.981 139.404C255.387 143.267 253.045 146.779 250.102 149.735C247.157 152.692 243.659 155.038 239.812 156.638C236.445 158.038 232.862 158.844 229.229 159.024L227.67 159.064C223.505 159.064 219.38 158.237 215.533 156.638C211.686 155.038 208.185 152.693 205.238 149.735C202.662 147.148 200.549 144.135 198.994 140.835L198.364 139.404C196.77 135.541 195.948 131.395 195.948 127.213V122.647H196.565C196.687 121.969 196.887 121.288 197.173 120.622L219.325 69.2635C219.671 68.4644 220.107 67.757 220.604 67.1321H185.258V188.814C207.997 187.513 221.799 177.832 225.645 173.542C227.324 171.675 230.2 171.521 232.067 173.203C233.933 174.891 234.084 177.783 232.409 179.655C226.42 186.336 208.287 198.098 180.12 198.098C151.954 198.098 133.82 186.34 127.831 179.66C126.157 177.788 126.302 174.891 128.169 173.203C130.035 171.519 132.916 171.674 134.595 173.542C138.509 177.908 152.726 187.841 176.163 188.868V67.1321H136.931C137.43 67.7591 137.868 68.4697 138.214 69.2724L160.362 120.627C160.999 122.108 161.198 123.637 161.059 125.095C161.397 125.737 161.587 126.46 161.587 127.213L161.548 128.778C161.369 132.425 160.571 136.022 159.176 139.404C157.582 143.268 155.241 146.779 152.297 149.735C149.352 152.692 145.854 155.038 142.007 156.638C138.64 158.038 135.057 158.844 131.424 159.024L129.865 159.064C125.7 159.064 121.575 158.237 117.728 156.638C113.881 155.038 110.38 152.693 107.434 149.735C104.488 146.778 102.153 143.266 100.559 139.404C98.9647 135.54 98.1429 131.396 98.1429 127.213V122.647H98.7602C98.8822 121.97 99.0822 121.292 99.3686 120.627L121.52 69.2724L121.84 68.6036C122.121 68.0672 122.448 67.5792 122.804 67.1321H105.333V58H254.911V67.1321ZM108.1 133.384C108.34 134.24 108.621 135.084 108.961 135.908C110.099 138.664 111.764 141.17 113.864 143.279C115.964 145.387 118.46 147.06 121.205 148.202C123.95 149.343 126.895 149.931 129.865 149.932L130.975 149.905C133.567 149.777 136.123 149.201 138.525 148.202C141.27 147.06 143.766 145.387 145.866 143.279C147.967 141.169 149.637 138.663 150.774 135.908C151.113 135.086 151.393 134.241 151.631 133.384H108.1ZM205.905 133.38C206.145 134.237 206.426 135.084 206.766 135.908C207.903 138.664 209.57 141.171 211.669 143.279C213.769 145.387 216.265 147.06 219.01 148.202C221.755 149.343 224.7 149.931 227.67 149.932L228.78 149.905C231.372 149.777 233.928 149.201 236.33 148.202C239.075 147.06 241.571 145.387 243.671 143.279C245.772 141.169 247.442 138.662 248.578 135.908C248.918 135.085 249.202 134.238 249.44 133.38H205.905ZM108.411 122.647H151.32L129.865 72.8976L108.411 122.647ZM206.211 122.647H249.129L227.67 72.8976L206.211 122.647Z" fill="black"/>
</svg>
