<svg width="90" height="40" viewBox="0 0 90 40" fill="none" xmlns="http://www.w3.org/2000/svg">
<path d="M38.6445 7H34.4844C34.6057 7.14469 34.7105 7.31149 34.793 7.50098L39.3057 17.876C39.4437 18.1935 39.4902 18.5222 39.4639 18.8369C39.5538 18.9901 39.6025 19.1648 39.6025 19.3438L39.5947 19.6689C39.5573 20.4275 39.3892 21.1758 39.0967 21.8789C38.7625 22.6816 38.2724 23.412 37.6553 24.0264C37.0379 24.6407 36.3041 25.127 35.499 25.459C34.7942 25.7495 34.0446 25.9177 33.2842 25.9551L32.958 25.9629C32.0863 25.9628 31.2224 25.7911 30.417 25.459C29.6118 25.1269 28.8788 24.6406 28.2617 24.0264C27.6448 23.4122 27.1537 22.6822 26.8193 21.8789C26.485 21.0755 26.3135 20.2133 26.3135 19.3438V18.3438H26.4727C26.4987 18.1874 26.5442 18.0303 26.6113 17.876L31.124 7.50098L31.1943 7.35547C31.2632 7.22482 31.3435 7.10642 31.4326 7H24.2324V31.9639C28.8921 31.6775 31.7158 29.7089 32.499 28.8428C32.8687 28.4348 33.501 28.4013 33.9111 28.7715L33.9834 28.8438C34.3005 29.1945 34.3275 29.7231 34.0479 30.1045L33.9834 30.1836C32.7672 31.5288 29.1807 33.8502 23.627 33.9941L23.083 34.001C17.5854 34.001 13.9185 31.8671 12.4473 30.4561L12.1826 30.1836C11.8125 29.7735 11.8458 29.1413 12.2549 28.7715L12.334 28.707C12.7424 28.4076 13.32 28.46 13.667 28.8438C14.4677 29.7288 17.3954 31.7615 22.2324 31.9795V7H14.168C14.2895 7.14478 14.395 7.3113 14.4775 7.50098L18.9902 17.876C19.1283 18.1935 19.1748 18.5222 19.1484 18.8369C19.2384 18.9902 19.2871 19.1648 19.2871 19.3438L19.2793 19.6689C19.2419 20.4277 19.0739 21.1757 18.7812 21.8789C18.447 22.6818 17.9571 23.4119 17.3398 24.0264C16.7224 24.6409 15.9888 25.127 15.1836 25.459C14.4787 25.7495 13.7292 25.9178 12.9688 25.9551L12.6426 25.9629C11.7708 25.9628 10.907 25.7911 10.1016 25.459C9.29643 25.1269 8.56337 24.6405 7.94629 24.0264C7.3294 23.4122 6.8382 22.6822 6.50391 21.8789C6.16963 21.0754 5.99805 20.2134 5.99805 19.3438V18.3438H6.15723C6.18332 18.1873 6.22876 18.0304 6.2959 17.876L10.8096 7.50098C10.892 7.31147 10.9969 7.14468 11.1182 7H7.52051V5H38.6445V7ZM8.19824 20.6738C8.24246 20.8213 8.29237 20.9671 8.35156 21.1094C8.58463 21.6695 8.92582 22.1796 9.35645 22.6084C9.78738 23.0374 10.2998 23.3789 10.8633 23.6113C11.4267 23.8436 12.0321 23.9628 12.6426 23.9629C13.2531 23.9629 13.8583 23.8436 14.4219 23.6113C14.9854 23.379 15.4976 23.0374 15.9287 22.6084C16.3597 22.1793 16.7016 21.6692 16.9346 21.1094C16.9936 20.9674 17.0431 20.8216 17.0869 20.6738H8.19824ZM28.5146 20.6738C28.5587 20.8213 28.6079 20.9673 28.667 21.1094C28.9001 21.6695 29.2412 22.1796 29.6719 22.6084C30.1028 23.0374 30.6152 23.3789 31.1787 23.6113C31.7421 23.8436 32.3475 23.9628 32.958 23.9629C33.5684 23.9629 34.1738 23.8435 34.7373 23.6113C35.3007 23.379 35.8131 23.0373 36.2441 22.6084C36.675 22.1794 37.017 21.6691 37.25 21.1094C37.309 20.9675 37.3586 20.8215 37.4023 20.6738H28.5146ZM18.9365 18.5859C18.9383 18.5873 18.9441 18.5919 18.9512 18.5977C18.9461 18.5933 18.9419 18.5899 18.9395 18.5879C18.9379 18.5867 18.9362 18.5854 18.9355 18.585L18.9365 18.5859ZM39.252 18.5859C39.2538 18.5873 39.2594 18.5919 39.2666 18.5977C39.2615 18.5933 39.2574 18.5899 39.2549 18.5879C39.2533 18.5866 39.2516 18.5855 39.251 18.585L39.252 18.5859ZM8.27344 18.3438H17.0117L12.6426 8.29883L8.27344 18.3438ZM28.5889 18.3438H37.3271L32.958 8.29883L28.5889 18.3438Z" fill="black"/>
<path d="M49.4905 11.7202L53.4443 20.0161C53.686 20.4886 53.8759 20.8483 54.014 21.0953C54.1636 21.3423 54.3018 21.5088 54.4284 21.5947C54.5665 21.6806 54.7219 21.7397 54.8945 21.7719C54.9406 21.9115 54.9694 22.0618 54.9809 22.2229C55.0039 22.384 55.0154 22.5612 55.0154 22.7545C54.8312 22.733 54.5895 22.7169 54.2903 22.7062C53.991 22.7062 53.686 22.7062 53.3752 22.7062C53.0759 22.7062 52.8342 22.7062 52.65 22.7062C52.5119 22.7062 52.3278 22.7062 52.0976 22.7062C51.8674 22.7062 51.6256 22.7062 51.3724 22.7062C51.1192 22.7169 50.8775 22.7223 50.6473 22.7223C50.4286 22.733 50.2559 22.7437 50.1293 22.7545C50.1293 22.5397 50.1408 22.3571 50.1638 22.2068C50.1869 22.0457 50.2214 21.9007 50.2674 21.7719C50.6933 21.6967 50.9465 21.5786 51.0271 21.4175C51.1077 21.2457 51.0444 20.9503 50.8372 20.5315L49.0416 16.6333C48.7999 16.1393 48.6042 15.6829 48.4546 15.2641C48.3049 14.8452 48.1668 14.4103 48.0402 13.9593H48.42C48.2819 14.4211 48.138 14.8721 47.9884 15.3124C47.8388 15.7419 47.6661 16.1822 47.4705 16.6333L45.9511 20.2899C45.7785 20.7195 45.7382 21.0631 45.8303 21.3208C45.9223 21.5786 46.1756 21.7289 46.5899 21.7719C46.636 21.9007 46.6647 22.0511 46.6763 22.2229C46.6993 22.384 46.7108 22.5612 46.7108 22.7545C46.5842 22.7437 46.4115 22.733 46.1928 22.7223C45.9856 22.7223 45.7612 22.7169 45.5195 22.7062C45.2893 22.7062 45.0763 22.7062 44.8807 22.7062C44.5929 22.7062 44.3051 22.7062 44.0174 22.7062C43.7296 22.7169 43.4994 22.733 43.3268 22.7545C43.3268 22.5719 43.3383 22.4001 43.3613 22.239C43.3843 22.0779 43.4246 21.9222 43.4822 21.7719C43.6778 21.7397 43.8447 21.6752 43.9829 21.5786C44.121 21.4712 44.2534 21.2994 44.38 21.0631C44.5181 20.8268 44.6792 20.5047 44.8634 20.0966L48.4718 11.8007C48.656 11.7578 48.8172 11.7363 48.9553 11.7363C49.1049 11.7256 49.2833 11.7202 49.4905 11.7202ZM50.4056 18.7274L50.6645 19.6133C49.8934 19.6133 49.0819 19.6241 48.2301 19.6456C47.3899 19.667 46.5784 19.7046 45.7957 19.7583L46.072 18.7274H50.4056Z" fill="black"/>
<path d="M60.0213 22.8511C59.2731 22.8511 58.5825 22.7652 57.9494 22.5934C57.3279 22.4216 56.7178 22.1853 56.1193 21.8846C56.2114 21.4551 56.2689 21.0201 56.292 20.5798C56.315 20.1395 56.3265 19.7368 56.3265 19.3717C56.5567 19.3073 56.8099 19.2643 57.0862 19.2428C57.3624 19.2214 57.6271 19.2106 57.8804 19.2106C57.9264 19.8228 58.0185 20.3221 58.1566 20.7087C58.3062 21.0846 58.5364 21.3584 58.8472 21.5302C59.158 21.7021 59.5724 21.788 60.0903 21.788C60.7694 21.788 61.2586 21.6537 61.5579 21.3853C61.8571 21.1061 62.0068 20.7893 62.0068 20.4349C62.0068 20.059 61.8686 19.7476 61.5924 19.5006C61.3162 19.2428 60.9651 19.0173 60.5392 18.824C60.1133 18.6307 59.6587 18.4321 59.1753 18.228C58.7033 18.024 58.2487 17.777 57.8113 17.487C57.3854 17.1971 57.0344 16.8373 56.7581 16.4078C56.4934 15.9782 56.361 15.4413 56.361 14.7969C56.361 14.0881 56.5279 13.5029 56.8617 13.0411C57.207 12.5793 57.6674 12.2357 58.2429 12.0102C58.83 11.7846 59.486 11.6719 60.2112 11.6719C60.6371 11.6719 61.0572 11.7041 61.4715 11.7685C61.8859 11.833 62.2657 11.9189 62.6111 12.0263C62.9564 12.1229 63.2384 12.241 63.4571 12.3806C63.4571 12.7673 63.4628 13.1807 63.4743 13.621C63.4858 14.0506 63.5146 14.3996 63.5606 14.668C63.3765 14.7647 63.1348 14.8345 62.8355 14.8775C62.5477 14.9097 62.2888 14.9258 62.0586 14.9258C61.955 14.3244 61.8111 13.8626 61.6269 13.5405C61.4543 13.2183 61.2356 12.9981 60.9708 12.88C60.7176 12.7511 60.4184 12.6867 60.0731 12.6867C59.6011 12.6867 59.2155 12.7941 58.9163 13.0089C58.617 13.2129 58.4674 13.519 58.4674 13.9271C58.4674 14.3244 58.6055 14.6573 58.8817 14.9258C59.1695 15.1943 59.5321 15.4305 59.9695 15.6346C60.4184 15.8386 60.8903 16.048 61.3852 16.2628C61.8917 16.4776 62.3636 16.7299 62.801 17.0199C63.2499 17.2991 63.6182 17.6481 63.906 18.0669C64.1937 18.4857 64.3376 19.0066 64.3376 19.6294C64.3376 20.2416 64.1764 20.7946 63.8542 21.2886C63.5319 21.7719 63.0542 22.1531 62.4211 22.4323C61.7881 22.7115 60.9881 22.8511 60.0213 22.8511Z" fill="black"/>
<path d="M69.3034 20.6121C69.3034 21.3531 69.2516 22.0242 69.148 22.6256C69.0559 23.227 68.8717 23.7693 68.5955 24.2526C68.3193 24.7358 67.9164 25.1761 67.3869 25.5735C66.8575 25.9815 66.1611 26.3628 65.2978 26.7172C65.1482 26.6205 65.0389 26.497 64.9698 26.3467C64.9007 26.2071 64.8547 26.0567 64.8317 25.8956C65.2575 25.5949 65.6086 25.2728 65.8849 24.9291C66.1611 24.5962 66.3683 24.1881 66.5064 23.7049C66.656 23.2324 66.7309 22.6364 66.7309 21.9168V14.3781C66.7309 13.9378 66.6963 13.6103 66.6273 13.3955C66.5697 13.17 66.4546 13.0142 66.282 12.9283C66.1208 12.8317 65.8849 12.7726 65.5741 12.7511C65.528 12.633 65.4935 12.4827 65.4705 12.3001C65.459 12.1175 65.4532 11.9403 65.4532 11.7685C65.6604 11.7793 65.9079 11.79 66.1956 11.8007C66.4834 11.8115 66.7884 11.8169 67.1107 11.8169C67.433 11.8169 67.7322 11.8169 68.0085 11.8169C68.4459 11.8169 68.9063 11.8169 69.3897 11.8169C69.8846 11.8061 70.2817 11.79 70.581 11.7685C70.581 11.9618 70.5695 12.1444 70.5465 12.3162C70.535 12.4773 70.5062 12.6223 70.4602 12.7511C70.1379 12.7726 69.8904 12.8371 69.7178 12.9444C69.5566 13.0411 69.4473 13.2022 69.3897 13.4277C69.3322 13.6532 69.3034 13.97 69.3034 14.3781V20.6121Z" fill="black"/>
<path d="M79.547 22.8511C79.3858 22.5504 79.2362 22.2712 79.0981 22.0135C78.9715 21.7558 78.8506 21.5034 78.7355 21.2564C78.6204 21.0094 78.4938 20.7517 78.3557 20.4832C78.1715 20.0966 77.9931 19.7637 77.8204 19.4845C77.6593 19.2053 77.4694 18.9475 77.2507 18.7113C77.0435 18.475 76.7845 18.2334 76.4737 17.9864L77.1644 18.1475C76.8536 18.1582 76.5773 18.1636 76.3356 18.1636C76.0939 18.1636 75.8349 18.1582 75.5587 18.1475L75.645 17.1004C75.8177 17.1219 75.9615 17.138 76.0766 17.1487C76.1917 17.1595 76.3011 17.1649 76.4047 17.1649C76.8881 17.1649 77.3255 17.0843 77.7168 16.9232C78.1197 16.7621 78.442 16.5151 78.6837 16.1822C78.9369 15.8493 79.0635 15.4251 79.0635 14.9097C79.0635 14.2439 78.8736 13.7176 78.4938 13.331C78.1255 12.9337 77.55 12.735 76.7673 12.735C76.5601 12.735 76.3702 12.7511 76.1975 12.7834C76.0364 12.8048 75.8579 12.8424 75.6623 12.8961L75.7831 12.4612V20.0644C75.7831 20.5369 75.8119 20.8966 75.8695 21.1436C75.9385 21.3799 76.0421 21.541 76.1802 21.6269C76.3299 21.7021 76.5255 21.7504 76.7673 21.7719C76.8018 21.8685 76.8248 22.0135 76.8363 22.2068C76.8593 22.3894 76.8708 22.5719 76.8708 22.7545C76.6406 22.7437 76.3644 22.733 76.0421 22.7223C75.7313 22.7223 75.4148 22.7169 75.0925 22.7062C74.7817 22.7062 74.5228 22.7062 74.3156 22.7062C73.9242 22.7062 73.5099 22.7062 73.0725 22.7062C72.6466 22.7169 72.261 22.733 71.9157 22.7545C71.9157 22.5504 71.9215 22.3679 71.933 22.2068C71.956 22.0457 71.9905 21.9007 72.0366 21.7719C72.3473 21.7504 72.5833 21.6967 72.7444 21.6108C72.9171 21.5249 73.0322 21.3692 73.0897 21.1436C73.1588 20.9074 73.1933 20.5798 73.1933 20.161V14.3298C73.1933 13.9109 73.1588 13.5942 73.0897 13.3794C73.0322 13.1539 72.9171 12.9981 72.7444 12.9122C72.5833 12.8156 72.3416 12.7565 72.0193 12.735C71.9848 12.6062 71.956 12.4451 71.933 12.2518C71.9215 12.0477 71.9157 11.8867 71.9157 11.7685C72.1804 11.7793 72.543 11.79 73.0034 11.8007C73.4753 11.8115 73.9645 11.8169 74.471 11.8169C74.8623 11.8169 75.3457 11.8061 75.9213 11.7846C76.4968 11.7632 77.0895 11.7524 77.6996 11.7524C78.6434 11.7524 79.4146 11.8813 80.0131 12.139C80.6117 12.3968 81.0491 12.7458 81.3253 13.1861C81.6131 13.6156 81.7569 14.0989 81.7569 14.6358C81.7569 15.248 81.6246 15.7795 81.3598 16.2306C81.0951 16.6816 80.7268 17.0467 80.2548 17.3259C79.7829 17.5944 79.242 17.777 78.6319 17.8736L78.8909 17.6642C79.2247 17.8575 79.5009 18.0616 79.7196 18.2763C79.9383 18.4804 80.157 18.7489 80.3757 19.0818C80.5944 19.4039 80.8649 19.8496 81.1872 20.4188C81.3828 20.7409 81.5555 20.9933 81.7051 21.1759C81.8548 21.3584 82.0274 21.4927 82.2231 21.5786C82.4303 21.6537 82.6893 21.7021 83 21.7235C83 21.9061 82.9885 22.0779 82.9655 22.239C82.954 22.3894 82.9195 22.5451 82.8619 22.7062C82.1943 22.7062 81.5728 22.7169 80.9973 22.7384C80.4217 22.7599 79.9383 22.7974 79.547 22.8511Z" fill="black"/>
</svg>
